<?xml version="1.0" standalone="no"?>
<!DOCTYPE svg PUBLIC "-//W3C//DTD SVG 20010904//EN"
 "http://www.w3.org/TR/2001/REC-SVG-20010904/DTD/svg10.dtd">
<svg version="1.0" xmlns="http://www.w3.org/2000/svg"
 width="1000.000000pt" height="877.000000pt" viewBox="0 0 1000.000000 877.000000"
 preserveAspectRatio="xMidYMid meet">

<g transform="translate(0.000000,877.000000) scale(0.100000,-0.100000)"
fill="#000000" stroke="none">
<path d="M3489 8755 c-583 -91 -1118 -470 -1338 -947 -228 -493 -151 -1094
181 -1414 118 -114 263 -200 421 -250 31 -10 57 -21 57 -26 0 -13 -145 -299
-226 -446 -289 -521 -638 -1015 -1060 -1500 -157 -181 -593 -618 -769 -772
-175 -152 -440 -363 -608 -484 -75 -54 -140 -103 -144 -109 -3 -5 3 -16 13
-24 36 -27 258 6 447 67 435 139 1044 501 1547 920 498 415 1014 966 1547
1653 l22 29 75 -68 74 -68 -90 -96 c-284 -299 -569 -749 -684 -1079 l-19 -53
-444 -326 c-243 -179 -450 -336 -458 -349 -43 -65 77 -129 173 -93 14 6 161
109 325 230 164 121 301 220 303 220 2 0 -2 -25 -9 -55 -49 -207 -65 -570 -36
-775 75 -527 349 -998 751 -1291 97 -71 173 -116 289 -173 52 -25 96 -48 98
-50 2 -2 -68 -166 -156 -363 -89 -198 -161 -370 -161 -382 0 -15 68 -88 228
-244 384 -375 438 -426 466 -433 52 -13 142 13 189 54 45 39 34 53 -292 372
l-310 301 14 37 c15 42 252 572 258 579 3 2 53 -5 111 -16 59 -12 145 -24 191
-27 47 -4 85 -11 85 -17 0 -5 -43 -125 -95 -265 -52 -140 -95 -260 -95 -267 0
-6 107 -113 237 -236 131 -123 279 -263 330 -311 90 -86 93 -88 141 -88 86 0
192 51 192 94 0 8 -73 78 -162 157 -240 211 -315 282 -395 372 -83 93 -82 81
-23 222 20 50 59 147 85 216 l47 127 66 7 c93 10 287 59 390 99 256 98 474
240 670 435 334 332 593 823 687 1303 13 66 26 122 28 125 3 3 52 -2 109 -11
1035 -162 2072 48 2714 550 290 226 457 454 505 689 121 586 -427 1145 -1228
1250 -58 8 -107 16 -110 18 -2 3 9 49 25 103 56 188 67 277 66 524 0 212 -2
231 -27 324 -42 156 -96 256 -192 352 -127 129 -264 183 -462 184 -165 0 -304
-36 -498 -130 -203 -99 -379 -227 -565 -413 -430 -428 -710 -981 -840 -1659
l-11 -57 -76 92 c-42 51 -141 157 -221 237 l-144 145 27 20 c175 127 381 328
501 488 346 461 433 945 250 1394 -89 217 -259 404 -461 505 -164 83 -319 118
-552 125 -257 8 -451 -20 -708 -101 -120 -38 -104 -47 -125 69 -20 108 -60
224 -111 323 -135 262 -339 409 -634 457 -109 18 -280 18 -396 0z m271 -116
c327 -83 548 -360 615 -769 9 -58 19 -116 21 -129 5 -23 7 -23 78 -19 58 4 90
13 151 42 96 46 252 99 365 123 66 14 127 18 275 17 172 0 199 -3 287 -27 299
-80 519 -263 649 -542 67 -142 90 -247 96 -430 6 -191 -8 -291 -67 -466 -174
-522 -657 -1018 -1180 -1212 -131 -48 -230 -67 -358 -67 -133 0 -250 19 -368
61 -105 36 -250 111 -302 154 -20 17 -49 38 -63 47 -98 62 -230 216 -340 398
-41 67 -101 152 -134 188 -105 115 -179 152 -450 222 -547 141 -832 630 -729
1250 50 304 193 582 408 796 316 313 705 449 1046 363z m4273 -1524 c200 -42
349 -206 414 -453 20 -78 26 -129 30 -259 7 -214 -13 -372 -72 -579 l-15 -51
-82 -7 c-683 -59 -1322 -426 -1858 -1068 -61 -74 -64 -76 -78 -57 -11 16 -12
39 -7 102 58 721 302 1329 740 1844 256 300 534 494 763 533 70 12 91 11 165
-5z m-4930 -1091 c83 -42 164 -121 216 -210 19 -33 59 -96 89 -141 l54 -82
-133 -173 c-129 -166 -373 -469 -448 -554 -388 -440 -809 -858 -1126 -1117
-412 -338 -916 -651 -1258 -784 -85 -33 -139 -41 -87 -13 14 7 77 53 140 101
490 373 1011 878 1425 1384 388 474 767 1051 1005 1533 25 50 46 91 48 91 1 1
35 -15 75 -35z m5198 -453 c-47 -93 -162 -258 -249 -357 -293 -334 -810 -656
-1361 -848 -73 -25 -141 -46 -150 -46 -13 0 -25 17 -40 51 l-21 52 44 61 c242
339 542 636 836 828 284 186 648 311 918 317 l52 1 -29 -59z m411 29 c277 -57
505 -165 695 -329 306 -264 412 -646 267 -959 -114 -247 -399 -503 -739 -662
-444 -209 -1031 -309 -1629 -280 -207 11 -356 28 -533 61 l-113 21 0 134 c0
162 -20 322 -60 483 -31 120 -32 141 -5 141 25 0 315 99 452 155 674 274 1211
701 1468 1164 58 104 48 101 197 71z m-3062 -437 c91 -93 196 -206 233 -253
348 -437 529 -912 527 -1379 -2 -320 -136 -787 -321 -1110 -283 -498 -682
-804 -1169 -897 -142 -27 -390 -25 -537 4 -410 81 -752 303 -999 648 -35 49
-86 132 -113 185 l-50 95 182 -91 c386 -193 717 -270 1147 -270 246 1 369 15
568 66 224 57 581 214 636 280 42 49 28 108 -31 138 -45 23 -90 13 -206 -48
-212 -113 -426 -183 -657 -216 -136 -19 -407 -19 -554 0 -395 52 -798 225
-1130 485 l-103 81 -12 74 c-33 204 -30 487 9 700 20 116 76 320 105 390 l17
39 54 -57 c99 -104 280 -225 448 -299 472 -207 995 -176 1578 94 211 97 478
253 505 294 37 58 -19 108 -122 108 -57 0 -66 -3 -190 -79 -387 -235 -730
-345 -1073 -345 -291 0 -493 62 -738 225 -108 72 -290 236 -328 297 -17 25
-16 28 8 77 115 227 327 527 520 736 l64 70 74 -37 c166 -84 370 -122 603
-115 139 5 178 10 300 40 207 52 398 128 519 205 28 18 55 32 60 32 6 0 85
-75 176 -167z m-1760 -4453 c0 -5 -5 -10 -11 -10 -5 0 -7 5 -4 10 3 6 8 10 11
10 2 0 4 -4 4 -10z"/>
<path d="M3035 7801 c-85 -22 -168 -92 -204 -171 -31 -69 -29 -180 5 -248 43
-86 126 -142 211 -142 45 0 115 41 145 85 43 62 61 152 55 270 -6 123 -23 170
-71 190 -45 19 -104 26 -141 16z"/>
<path d="M5105 6537 c-173 -58 -285 -186 -315 -360 -14 -80 -2 -170 29 -221
11 -18 44 -46 73 -62 47 -26 63 -29 138 -29 71 0 94 4 142 27 154 72 238 226
238 438 0 113 -11 158 -45 190 -23 22 -36 25 -123 27 -61 2 -112 -2 -137 -10z"/>
<path d="M5844 3797 c-17 -6 -41 -19 -53 -27 -30 -22 -521 -934 -521 -970 0
-42 32 -60 104 -60 91 0 138 27 180 103 169 303 476 886 476 903 0 36 -35 57
-98 61 -31 1 -71 -3 -88 -10z"/>
</g>
</svg>
